# xmcd
#
# Track frame offsets:
#	150
#	22566
#	44353
#	58938
#	83464
#	115783
#	134831
#	154703
#	172528
#	202507
#	221406
#	242109
#	262785
#	283028
#	295109
#	319403
#
# Disc length: 4677 seconds
#
# Revision: 0
# Processed by: cddbd v1.4PL0 Copyright (c) Steve Scherf et al.
# Submitted via: EasyCDDAExtractor 5.0.2.1
#
DISCID=d0124310
DTITLE=Tracy Chapman - Collection
DYEAR=2001
DGENRE=
TTITLE0=Fast Car
TTITLE1=Subcity
TTITLE2=Baby Can I Hold You
TTITLE3=The Promise
TTITLE4=I'm Ready
TTITLE5=Crossroads
TTITLE6=Bang Bang Bang
TTITLE7=Telling Stories
TTITLE8=Smoke And Ashes
TTITLE9=Speak The Word
TTITLE10=Wedding Song
TTITLE11=Open Arms
TTITLE12=Give Me One Reason
TTITLE13=Talkin' 'Bout a Revolution
TTITLE14=Heaven's Here On Earth
TTITLE15=Matters Of The Heart
EXTD=
EXTT0=
EXTT1=
EXTT2=
EXTT3=
EXTT4=
EXTT5=
EXTT6=
EXTT7=
EXTT8=
EXTT9=
EXTT10=
EXTT11=
EXTT12=
EXTT13=
EXTT14=
EXTT15=
PLAYORDER=
